<mxfile host="app.diagrams.net" agent="Mozilla/5.0 (Windows NT 10.0; Win64; x64) AppleWebKit/537.36 (KHTML, like Gecko) Chrome/137.0.0.0 Safari/537.36" version="27.1.6">
  <diagram name="Page-1" id="PXCGWLyjpS2FOCeSeXsM">
    <mxGraphModel dx="1429" dy="758" grid="1" gridSize="10" guides="1" tooltips="1" connect="1" arrows="1" fold="1" page="1" pageScale="1" pageWidth="850" pageHeight="1100" math="0" shadow="0">
      <root>
        <mxCell id="0" />
        <mxCell id="1" parent="0" />
        <mxCell id="NjQ96l3yRZwxOE0Y7RRW-1" value="city" style="rounded=1;whiteSpace=wrap;html=1;" vertex="1" parent="1">
          <mxGeometry x="850" y="80" width="120" height="60" as="geometry" />
        </mxCell>
        <mxCell id="NjQ96l3yRZwxOE0Y7RRW-2" value="river_banks" style="rounded=1;whiteSpace=wrap;html=1;" vertex="1" parent="1">
          <mxGeometry x="850" y="200" width="120" height="60" as="geometry" />
        </mxCell>
        <mxCell id="NjQ96l3yRZwxOE0Y7RRW-3" value="street_network" style="rounded=1;whiteSpace=wrap;html=1;" vertex="1" parent="1">
          <mxGeometry x="850" y="320" width="120" height="60" as="geometry" />
        </mxCell>
        <mxCell id="NjQ96l3yRZwxOE0Y7RRW-4" value="type_street" style="rounded=1;whiteSpace=wrap;html=1;" vertex="1" parent="1">
          <mxGeometry x="850" y="430" width="120" height="60" as="geometry" />
        </mxCell>
        <mxCell id="NjQ96l3yRZwxOE0Y7RRW-5" value="bridge" style="rounded=1;whiteSpace=wrap;html=1;" vertex="1" parent="1">
          <mxGeometry x="1050" y="320" width="120" height="60" as="geometry" />
        </mxCell>
        <mxCell id="NjQ96l3yRZwxOE0Y7RRW-6" value="type_bridge" style="rounded=1;whiteSpace=wrap;html=1;" vertex="1" parent="1">
          <mxGeometry x="1050" y="430" width="120" height="60" as="geometry" />
        </mxCell>
        <mxCell id="NjQ96l3yRZwxOE0Y7RRW-7" value="facilities" style="rounded=1;whiteSpace=wrap;html=1;" vertex="1" parent="1">
          <mxGeometry x="650" y="320" width="120" height="60" as="geometry" />
        </mxCell>
        <mxCell id="NjQ96l3yRZwxOE0Y7RRW-8" value="type_facility" style="rounded=1;whiteSpace=wrap;html=1;" vertex="1" parent="1">
          <mxGeometry x="650" y="550" width="120" height="60" as="geometry" />
        </mxCell>
        <mxCell id="NjQ96l3yRZwxOE0Y7RRW-9" value="trees" style="rounded=1;whiteSpace=wrap;html=1;" vertex="1" parent="1">
          <mxGeometry x="480" y="320" width="120" height="60" as="geometry" />
        </mxCell>
        <mxCell id="NjQ96l3yRZwxOE0Y7RRW-10" value="tree_species" style="rounded=1;whiteSpace=wrap;html=1;" vertex="1" parent="1">
          <mxGeometry x="480" y="430" width="120" height="60" as="geometry" />
        </mxCell>
        <mxCell id="NjQ96l3yRZwxOE0Y7RRW-11" value="status_bridge" style="rounded=1;whiteSpace=wrap;html=1;" vertex="1" parent="1">
          <mxGeometry x="1210" y="430" width="120" height="60" as="geometry" />
        </mxCell>
        <mxCell id="NjQ96l3yRZwxOE0Y7RRW-12" value="landuse" style="rounded=1;whiteSpace=wrap;html=1;" vertex="1" parent="1">
          <mxGeometry x="330" y="320" width="120" height="60" as="geometry" />
        </mxCell>
        <mxCell id="NjQ96l3yRZwxOE0Y7RRW-13" value="type_landuse" style="rounded=1;whiteSpace=wrap;html=1;" vertex="1" parent="1">
          <mxGeometry x="330" y="430" width="120" height="60" as="geometry" />
        </mxCell>
        <mxCell id="NjQ96l3yRZwxOE0Y7RRW-14" value="benches" style="rounded=1;whiteSpace=wrap;html=1;" vertex="1" parent="1">
          <mxGeometry x="1370" y="320" width="120" height="60" as="geometry" />
        </mxCell>
        <mxCell id="NjQ96l3yRZwxOE0Y7RRW-15" value="" style="fontSize=12;html=1;endArrow=ERmandOne;startArrow=ERmandOne;rounded=0;exitX=0.5;exitY=1;exitDx=0;exitDy=0;" edge="1" parent="1" source="NjQ96l3yRZwxOE0Y7RRW-1">
          <mxGeometry width="100" height="100" relative="1" as="geometry">
            <mxPoint x="880" y="170" as="sourcePoint" />
            <mxPoint x="910" y="197" as="targetPoint" />
            <Array as="points" />
          </mxGeometry>
        </mxCell>
        <mxCell id="NjQ96l3yRZwxOE0Y7RRW-16" value="" style="fontSize=12;html=1;endArrow=ERoneToMany;rounded=0;entryX=0.5;entryY=0;entryDx=0;entryDy=0;exitX=0.5;exitY=1;exitDx=0;exitDy=0;" edge="1" parent="1" source="NjQ96l3yRZwxOE0Y7RRW-2" target="NjQ96l3yRZwxOE0Y7RRW-3">
          <mxGeometry width="100" height="100" relative="1" as="geometry">
            <mxPoint x="900" y="290" as="sourcePoint" />
            <mxPoint x="970" y="210" as="targetPoint" />
          </mxGeometry>
        </mxCell>
        <mxCell id="NjQ96l3yRZwxOE0Y7RRW-17" value="" style="fontSize=12;html=1;endArrow=ERoneToMany;rounded=0;entryX=0.5;entryY=0;entryDx=0;entryDy=0;exitX=0.5;exitY=1;exitDx=0;exitDy=0;" edge="1" parent="1" source="NjQ96l3yRZwxOE0Y7RRW-2">
          <mxGeometry width="100" height="100" relative="1" as="geometry">
            <mxPoint x="900" y="270" as="sourcePoint" />
            <mxPoint x="709.41" y="320" as="targetPoint" />
          </mxGeometry>
        </mxCell>
        <mxCell id="NjQ96l3yRZwxOE0Y7RRW-18" value="" style="fontSize=12;html=1;endArrow=ERoneToMany;rounded=0;entryX=0.5;entryY=0;entryDx=0;entryDy=0;" edge="1" parent="1">
          <mxGeometry width="100" height="100" relative="1" as="geometry">
            <mxPoint x="910" y="260" as="sourcePoint" />
            <mxPoint x="1100" y="320" as="targetPoint" />
          </mxGeometry>
        </mxCell>
        <mxCell id="NjQ96l3yRZwxOE0Y7RRW-19" value="" style="fontSize=12;html=1;endArrow=ERoneToMany;rounded=0;entryX=0.5;entryY=0;entryDx=0;entryDy=0;" edge="1" parent="1" target="NjQ96l3yRZwxOE0Y7RRW-14">
          <mxGeometry width="100" height="100" relative="1" as="geometry">
            <mxPoint x="910" y="260" as="sourcePoint" />
            <mxPoint x="1100" y="320" as="targetPoint" />
          </mxGeometry>
        </mxCell>
        <mxCell id="NjQ96l3yRZwxOE0Y7RRW-20" value="" style="fontSize=12;html=1;endArrow=ERoneToMany;rounded=0;entryX=0.5;entryY=0;entryDx=0;entryDy=0;exitX=0.5;exitY=1;exitDx=0;exitDy=0;" edge="1" parent="1" source="NjQ96l3yRZwxOE0Y7RRW-2">
          <mxGeometry width="100" height="100" relative="1" as="geometry">
            <mxPoint x="740.59" y="260" as="sourcePoint" />
            <mxPoint x="540" y="320" as="targetPoint" />
          </mxGeometry>
        </mxCell>
        <mxCell id="NjQ96l3yRZwxOE0Y7RRW-21" value="" style="fontSize=12;html=1;endArrow=ERoneToMany;rounded=0;entryX=0.5;entryY=0;entryDx=0;entryDy=0;" edge="1" parent="1">
          <mxGeometry width="100" height="100" relative="1" as="geometry">
            <mxPoint x="910" y="260" as="sourcePoint" />
            <mxPoint x="400" y="320" as="targetPoint" />
          </mxGeometry>
        </mxCell>
        <mxCell id="NjQ96l3yRZwxOE0Y7RRW-22" value="" style="fontSize=12;html=1;endArrow=ERmany;rounded=0;entryX=0.5;entryY=1;entryDx=0;entryDy=0;" edge="1" parent="1" target="NjQ96l3yRZwxOE0Y7RRW-9">
          <mxGeometry width="100" height="100" relative="1" as="geometry">
            <mxPoint x="540" y="430" as="sourcePoint" />
            <mxPoint x="640" y="330" as="targetPoint" />
          </mxGeometry>
        </mxCell>
        <mxCell id="NjQ96l3yRZwxOE0Y7RRW-23" value="" style="fontSize=12;html=1;endArrow=ERmany;rounded=0;entryX=0.5;entryY=1;entryDx=0;entryDy=0;" edge="1" parent="1">
          <mxGeometry width="100" height="100" relative="1" as="geometry">
            <mxPoint x="389.47" y="430" as="sourcePoint" />
            <mxPoint x="389.47" y="380" as="targetPoint" />
          </mxGeometry>
        </mxCell>
        <mxCell id="NjQ96l3yRZwxOE0Y7RRW-24" value="" style="fontSize=12;html=1;endArrow=ERmany;rounded=0;entryX=0.5;entryY=1;entryDx=0;entryDy=0;" edge="1" parent="1">
          <mxGeometry width="100" height="100" relative="1" as="geometry">
            <mxPoint x="909.47" y="430" as="sourcePoint" />
            <mxPoint x="909.47" y="380" as="targetPoint" />
          </mxGeometry>
        </mxCell>
        <mxCell id="NjQ96l3yRZwxOE0Y7RRW-25" value="" style="fontSize=12;html=1;endArrow=ERmany;rounded=0;entryX=0.5;entryY=1;entryDx=0;entryDy=0;" edge="1" parent="1">
          <mxGeometry width="100" height="100" relative="1" as="geometry">
            <mxPoint x="1109.47" y="430" as="sourcePoint" />
            <mxPoint x="1109.47" y="380" as="targetPoint" />
          </mxGeometry>
        </mxCell>
        <mxCell id="NjQ96l3yRZwxOE0Y7RRW-26" value="" style="fontSize=12;html=1;endArrow=ERmandOne;startArrow=ERmandOne;rounded=0;exitX=1;exitY=0.5;exitDx=0;exitDy=0;" edge="1" parent="1" source="NjQ96l3yRZwxOE0Y7RRW-5">
          <mxGeometry width="100" height="100" relative="1" as="geometry">
            <mxPoint x="1269.38" y="373" as="sourcePoint" />
            <mxPoint x="1269.38" y="430" as="targetPoint" />
            <Array as="points" />
          </mxGeometry>
        </mxCell>
        <mxCell id="NjQ96l3yRZwxOE0Y7RRW-27" value="facilities_type_facility" style="rounded=1;whiteSpace=wrap;html=1;" vertex="1" parent="1">
          <mxGeometry x="650" y="430" width="120" height="60" as="geometry" />
        </mxCell>
        <mxCell id="NjQ96l3yRZwxOE0Y7RRW-28" value="" style="fontSize=12;html=1;endArrow=ERmany;rounded=0;entryX=0.5;entryY=1;entryDx=0;entryDy=0;exitX=0.5;exitY=1;exitDx=0;exitDy=0;" edge="1" parent="1" source="NjQ96l3yRZwxOE0Y7RRW-7">
          <mxGeometry width="100" height="100" relative="1" as="geometry">
            <mxPoint x="709.5" y="480" as="sourcePoint" />
            <mxPoint x="709.5" y="430" as="targetPoint" />
          </mxGeometry>
        </mxCell>
        <mxCell id="NjQ96l3yRZwxOE0Y7RRW-29" value="" style="fontSize=12;html=1;endArrow=ERmany;rounded=0;entryX=0.5;entryY=1;entryDx=0;entryDy=0;exitX=0.5;exitY=1;exitDx=0;exitDy=0;" edge="1" parent="1" target="NjQ96l3yRZwxOE0Y7RRW-27">
          <mxGeometry width="100" height="100" relative="1" as="geometry">
            <mxPoint x="710" y="550" as="sourcePoint" />
            <mxPoint x="709.5" y="600" as="targetPoint" />
          </mxGeometry>
        </mxCell>
      </root>
    </mxGraphModel>
  </diagram>
</mxfile>
